<svg version="1.1" id="Layer_1" xmlns="http://www.w3.org/2000/svg" xmlns:xlink="http://www.w3.org/1999/xlink" x="0px" y="0px"
	 width="100%" viewBox="0 0 240 240" enable-background="new 0 0 240 240" xml:space="preserve">
<path fill="#000000" opacity="1.000000" stroke="none" 
	d="
M96.939499,148.074387 
	C96.942299,151.224579 96.960793,153.887650 96.952202,156.550613 
	C96.930489,163.276611 96.675026,163.352692 89.860703,163.430862 
	C86.114403,163.473816 84.465530,162.403519 84.582687,158.338882 
	C84.836754,149.524704 84.805519,140.695770 84.620155,131.878555 
	C84.541405,128.132477 86.062157,126.821945 89.615990,126.910164 
	C94.772385,127.038177 99.934357,126.935959 105.093941,126.942825 
	C109.335014,126.948479 112.817429,125.683571 113.463837,120.938423 
	C113.911842,117.649734 110.311234,114.722771 105.394737,114.448006 
	C100.748528,114.188339 96.068718,114.182892 91.420349,114.408707 
	C86.973557,114.624733 84.471107,113.981148 84.447754,108.363899 
	C84.423172,102.451225 87.472824,102.448883 91.627975,102.586006 
	C96.283287,102.739647 100.947792,102.590027 105.607735,102.632912 
	C118.026901,102.747200 125.796448,109.480461 126.129013,120.375999 
	C126.451721,130.948776 118.577286,138.525650 106.488274,139.269989 
	C105.990326,139.300644 105.490089,139.294083 104.990913,139.304794 
	C97.028259,139.475845 97.028259,139.475845 96.939499,148.074387 
z"/>
<path fill="#000000" opacity="1.000000" stroke="none" 
	d="
M59.422279,124.403069 
	C60.337791,127.162514 62.386948,126.682304 64.140747,126.707588 
	C69.303658,126.782013 74.468781,126.835503 79.631279,126.766296 
	C84.277565,126.704010 83.875732,130.019241 83.952637,133.003860 
	C84.028320,135.941147 84.062439,138.893951 79.829918,138.891876 
	C75.166275,138.889587 70.484886,139.233810 65.843781,138.929962 
	C60.967979,138.610748 58.767376,140.092499 59.236897,145.342056 
	C59.650730,149.968933 59.218590,154.665359 59.355396,159.325333 
	C59.444778,162.369705 58.121548,163.312607 55.195595,163.428558 
	C46.865635,163.758652 46.711788,163.728546 46.706432,155.585007 
	C46.696018,139.760529 46.797333,123.934898 46.620132,108.112350 
	C46.574997,104.081871 47.761429,102.401306 51.980919,102.565880 
	C58.633732,102.825356 65.310585,102.817451 71.964714,102.576416 
	C76.713478,102.404404 76.288887,105.424561 76.331062,108.494179 
	C76.375061,111.696907 76.413757,114.691757 71.821190,114.321571 
	C69.835594,114.161522 67.825706,114.303375 65.826859,114.307152 
	C59.333477,114.319420 59.331440,114.319252 59.323277,120.984253 
	C59.322052,121.983368 59.350239,122.982521 59.422279,124.403069 
z"/>
<path fill="#000000" opacity="1.000000" stroke="none" 
	d="
M165.454834,117.728920 
	C167.547653,108.834084 173.662186,103.282448 181.673035,102.680557 
	C191.417236,101.948433 198.843231,105.752655 201.675125,113.372337 
	C202.545471,115.714157 204.872025,118.755219 201.317169,120.883087 
	C198.479218,122.581818 192.352234,120.934258 190.704956,118.394615 
	C187.969101,114.176666 183.622635,113.060936 180.170990,115.760544 
	C178.224640,117.282806 176.962952,119.276833 177.499481,121.830139 
	C178.017792,124.296783 179.672333,125.976364 182.140106,126.555283 
	C184.567337,127.124687 187.088684,127.299477 189.508240,127.893776 
	C197.892090,129.953079 203.247192,136.745071 203.327286,145.249405 
	C203.404953,153.497238 198.316879,160.236572 190.139175,162.537430 
	C188.019714,163.133759 184.882721,164.642197 184.171936,161.583206 
	C183.428238,158.382507 181.751587,154.074600 185.790848,151.682449 
	C188.904083,149.838715 191.620605,148.097336 190.716187,144.055344 
	C189.720474,139.605331 185.832001,138.997833 182.187271,138.433578 
	C169.995499,136.546082 163.778549,129.097580 165.454834,117.728920 
z"/>
<path fill="#000000" opacity="1.000000" stroke="none" 
	d="
M151.998260,129.317459 
	C152.012726,139.276245 151.850174,148.775589 152.101608,158.263962 
	C152.245392,163.689606 148.914642,163.309708 145.227249,163.443192 
	C141.316635,163.584747 139.448730,162.542557 139.561935,158.182709 
	C139.812622,148.527695 139.737259,138.860352 139.594391,129.201004 
	C139.543274,125.745171 140.463150,123.736755 144.303741,123.982491 
	C147.788376,124.205452 152.201385,122.846130 151.998260,129.317459 
z"/>
<path fill="#000000" opacity="1.000000" stroke="none" 
	d="
M144.001450,102.605835 
	C149.644531,102.607811 154.793732,102.762047 159.929642,102.566666 
	C164.116699,102.407387 164.327255,104.907440 164.312851,108.020218 
	C164.298401,111.143990 164.014755,113.545486 159.865768,113.470352 
	C150.245499,113.296127 140.619339,113.312408 130.997498,113.422020 
	C126.670898,113.471306 126.866272,110.644234 126.808281,107.719902 
	C126.749138,104.737488 127.227921,102.458694 131.059387,102.601181 
	C135.201218,102.755219 139.353882,102.617447 144.001450,102.605835 
z"/>
</svg>